<?xml version="1.0" standalone="no"?>
<!DOCTYPE svg PUBLIC "-//W3C//DTD SVG 20010904//EN"
 "http://www.w3.org/TR/2001/REC-SVG-20010904/DTD/svg10.dtd">
<svg version="1.0" xmlns="http://www.w3.org/2000/svg"
 width="426.000000pt" height="426.000000pt" viewBox="0 0 426.000000 426.000000"
 preserveAspectRatio="xMidYMid meet">
<metadata>
Created by potrace 1.14, written by Peter Selinger 2001-2017
</metadata>
<g transform="translate(0.000000,426.000000) scale(0.100000,-0.100000)"
fill="#000000" stroke="none">
<path d="M3695 3378 c-64 -23 -101 -75 -111 -160 -11 -97 31 -184 103 -214 53
-22 161 -18 213 9 55 27 80 69 87 145 13 147 -61 232 -202 231 -33 0 -73 -5
-90 -11z"/>
<path d="M72 3313 l3 -48 81 -7 c122 -10 188 -47 229 -129 47 -91 48 -110 52
-944 6 -995 1 -1055 -91 -1150 -47 -48 -103 -70 -208 -80 l-68 -7 0 -44 0 -44
500 0 500 0 0 44 0 44 -62 7 c-106 11 -165 32 -207 74 -81 81 -93 175 -89 695
l3 399 445 -484 c245 -266 460 -501 478 -522 41 -48 44 -96 7 -126 -29 -22
-105 -41 -165 -41 l-40 0 0 -45 0 -45 510 0 c483 0 513 -1 548 -19 55 -28 154
-45 226 -38 123 12 245 75 376 195 50 46 82 68 84 60 2 -7 7 -33 10 -58 10
-68 51 -145 92 -171 50 -30 126 -29 200 5 l56 26 334 0 334 0 0 43 0 43 -80
12 c-109 16 -156 41 -183 100 -22 47 -22 52 -25 814 l-3 767 -59 -47 c-90 -73
-262 -164 -402 -215 -14 -5 -18 -18 -18 -51 l0 -44 48 15 c56 17 116 12 144
-14 49 -43 49 -49 49 -622 l-1 -536 -60 -57 c-83 -79 -139 -89 -177 -31 -17
25 -18 71 -23 648 -6 680 -5 665 -68 756 -43 62 -68 84 -142 118 -135 63 -366
65 -519 4 -204 -81 -330 -230 -339 -399 -7 -136 42 -196 161 -195 125 0 172
86 136 245 -24 107 16 201 105 249 35 19 57 22 146 22 121 0 165 -16 219 -82
50 -60 61 -115 61 -299 l0 -162 -42 -16 c-24 -8 -101 -36 -173 -62 -473 -167
-705 -381 -705 -649 0 -62 24 -158 51 -204 11 -18 18 -35 16 -37 -7 -7 -117
35 -185 70 -37 20 -88 53 -114 73 -60 48 -1003 1070 -1003 1087 0 24 815 839
905 906 102 75 204 126 285 141 33 7 66 13 73 15 7 2 12 21 12 49 l0 45 -447
-2 -448 -3 0 -45 0 -45 62 -7 c110 -12 160 -55 150 -128 -14 -104 -266 -417
-568 -704 -103 -98 -312 -266 -331 -266 -12 0 -10 737 2 827 7 51 22 100 43
143 29 58 38 68 90 94 45 23 75 30 137 34 l80 5 0 48 0 49 -501 0 -500 0 3
-47z m3108 -1793 c0 -266 -2 -294 -19 -328 -28 -55 -112 -129 -189 -165 -56
-27 -81 -32 -154 -35 -114 -5 -184 15 -243 69 -59 55 -80 111 -80 219 0 71 4
94 27 143 52 111 177 215 348 288 73 32 272 98 298 99 9 0 12 -65 12 -290z"/>
</g>
</svg>
